<?xml version="1.0" encoding="UTF-8" standalone="no"?>
<!DOCTYPE svg PUBLIC "-//W3C//DTD SVG 1.1//EN" "http://www.w3.org/Graphics/SVG/1.1/DTD/svg11.dtd">
<svg width="100%" height="100%" viewBox="0 0 1280 1280" version="1.1" xmlns="http://www.w3.org/2000/svg" xmlns:xlink="http://www.w3.org/1999/xlink" xml:space="preserve" xmlns:serif="http://www.serif.com/" style="fill-rule:evenodd;clip-rule:evenodd;stroke-linejoin:round;stroke-miterlimit:2;">
    <g transform="matrix(1.228595,0,0,1.213564,-214.200035,-273.362225)">
        <ellipse cx="695.3" cy="752.6" rx="520.9" ry="527.4" style="fill:rgb(3,7,16);"/>
    </g>
    <g transform="matrix(34.665546,0,0,34.579317,224.013451,225.25567)">
        <path d="M7.5,16C10.5,13.1 10.5,8.2 7.5,5.3L2.2,0C0.8,1.4 0,3.3 0,5.3C0,7.3 0.8,9.2 2.2,10.7L7.5,16ZM18.7,16.5C15.8,13.6 10.9,13.6 8,16.5L13.3,21.8C16.3,24.7 21.1,24.7 24,21.8L18.7,16.5ZM2.2,21.8C3.6,23.2 5.5,24 7.5,24L7.5,16.5L0,16.5C0,18.5 0.8,20.4 2.2,21.8ZM20.7,8.6C17.8,5.7 13,5.7 10.1,8.6L15.4,13.9L20.7,8.6Z" style="fill:rgb(127,200,255);fill-rule:nonzero;"/>
    </g>
</svg>
